<svg xmlns="http://www.w3.org/2000/svg" version="1.1" xmlns:xlink="http://www.w3.org/1999/xlink" xmlns:svgjs="http://svgjs.dev/svgjs" width="1000" height="1000" viewBox="0 0 1000 1000"><rect width="1000" height="1000" fill="#046380"></rect><g transform="matrix(0.7,0,0,0.7,149.5757651873543,282.1265587044535)"><svg viewBox="0 0 396 247" data-background-color="#046380" preserveAspectRatio="xMidYMid meet" height="623" width="1000" xmlns="http://www.w3.org/2000/svg" xmlns:xlink="http://www.w3.org/1999/xlink"><defs></defs><g id="tight-bounds" transform="matrix(1,0,0,1,0.23999569401098597,-0.09999999999999432)"><svg viewBox="0 0 395.52 247.2" height="247.2" width="395.52"><g><svg></svg></g><g><svg viewBox="0 0 395.52 247.2" height="247.2" width="395.52"><g><path d="M211.003 0c13.184 0 24.838 2.99 34.961 8.97 10.123 6.027 18.128 14.338 24.014 24.932 5.886 10.594 8.829 22.719 8.828 36.373 0 2.234-0.079 4.431-0.236 6.592l-21.972 0c0.209-2.149 0.313-4.346 0.313-6.592 0-9.653-1.931-18.199-5.791-25.638-3.908-7.392-9.276-13.208-16.103-17.445-6.827-4.238-14.832-6.357-24.014-6.357l-73.101 0 0 56.032-21.188 0v-66.273c0-2.825 1.059-5.297 3.178-7.416 2.119-2.119 4.591-3.178 7.416-3.178zM137.902 236.606c0 2.825-1.059 5.297-3.178 7.416-2.119 2.119-4.591 3.178-7.416 3.178-3.296 0-5.886-1.059-7.769-3.178-1.883-2.119-2.825-4.591-2.825-7.416l0-66.273h21.188z" fill="#ffffff" data-fill-palette-color="tertiary"></path></g><g transform="matrix(1,0,0,1,0,87.42439024390244)"><svg viewBox="0 0 395.52 72.35121951219512" height="72.35121951219512" width="395.52"><g><svg viewBox="0 0 395.52 72.35121951219512" height="72.35121951219512" width="395.52"><g><svg viewBox="0 0 395.52 72.35121951219512" height="72.35121951219512" width="395.52"><g><svg viewBox="0 0 395.52 72.35121951219512" height="72.35121951219512" width="395.52"><g><svg viewBox="0 0 395.52 72.35121951219512" height="72.35121951219512" width="395.52"><g><svg viewBox="0 0 395.52 72.35121951219512" height="72.35121951219512" width="395.52"><g transform="matrix(1,0,0,1,0,0)"><svg width="395.52" viewBox="4.699999809265137 -37 204.97999572753906 37.5" height="72.35121951219512" data-palette-color="#ffffff"><path d="M6.2-35L18.05-35Q20.85-35 23-33.73 25.15-32.45 26.4-30.2 27.65-27.95 27.65-25.05L27.65-25.05Q27.65-22.15 26.4-19.83 25.15-17.5 23-16.15 20.85-14.8 18.05-14.8L18.05-14.8 7.45-14.8 7.7-15.3 7.7-1.5Q7.7-0.9 7.25-0.45 6.8 0 6.2 0L6.2 0Q5.5 0 5.1-0.45 4.7-0.9 4.7-1.5L4.7-1.5 4.7-33.5Q4.7-34.1 5.15-34.55 5.6-35 6.2-35L6.2-35ZM7.4-17.7L18.05-17.7Q20-17.7 21.45-18.68 22.9-19.65 23.73-21.33 24.55-23 24.55-25.05L24.55-25.05Q24.55-27.1 23.73-28.68 22.9-30.25 21.45-31.15 20-32.05 18.05-32.05L18.05-32.05 7.45-32.05 7.7-32.5 7.7-17.4 7.4-17.7ZM54.25-25.55L54.25-25.55Q54.9-25.55 55.32-25.1 55.75-24.65 55.75-24L55.75-24 55.75-1.5Q55.75-0.9 55.3-0.45 54.85 0 54.25 0L54.25 0Q53.55 0 53.15-0.45 52.75-0.9 52.75-1.5L52.75-1.5 52.75-7.45 53.6-7.85Q53.6-6.45 52.82-5 52.05-3.55 50.7-2.3 49.35-1.05 47.52-0.28 45.7 0.5 43.55 0.5L43.55 0.5Q40.2 0.5 37.52-1.25 34.85-3 33.32-6.05 31.8-9.1 31.8-12.9L31.8-12.9Q31.8-16.8 33.35-19.78 34.9-22.75 37.55-24.45 40.2-26.15 43.5-26.15L43.5-26.15Q45.65-26.15 47.52-25.4 49.4-24.65 50.8-23.35 52.2-22.05 53-20.38 53.8-18.7 53.8-16.9L53.8-16.9 52.75-17.65 52.75-24Q52.75-24.65 53.15-25.1 53.55-25.55 54.25-25.55ZM43.85-2.3L43.85-2.3Q46.5-2.3 48.55-3.68 50.6-5.05 51.77-7.48 52.95-9.9 52.95-12.9L52.95-12.9Q52.95-15.85 51.77-18.2 50.6-20.55 48.55-21.95 46.5-23.35 43.85-23.35L43.85-23.35Q41.25-23.35 39.17-22 37.1-20.65 35.92-18.3 34.75-15.95 34.75-12.9L34.75-12.9Q34.75-9.9 35.9-7.48 37.05-5.05 39.12-3.68 41.2-2.3 43.85-2.3ZM65.09 0L65.09 0Q64.4 0 64-0.45 63.6-0.9 63.6-1.5L63.6-1.5 63.6-23.9Q63.6-24.5 64.02-24.95 64.45-25.4 65.09-25.4L65.09-25.4Q65.75-25.4 66.17-24.95 66.59-24.5 66.59-23.9L66.59-23.9 66.59-16.4 65.84-16.25Q66-18 66.72-19.73 67.45-21.45 68.7-22.9 69.95-24.35 71.67-25.25 73.4-26.15 75.55-26.15L75.55-26.15Q76.45-26.15 77.3-25.78 78.15-25.4 78.15-24.55L78.15-24.55Q78.15-23.8 77.75-23.4 77.34-23 76.8-23L76.8-23Q76.34-23 75.82-23.25 75.3-23.5 74.45-23.5L74.45-23.5Q73.05-23.5 71.65-22.68 70.25-21.85 69.09-20.45 67.95-19.05 67.27-17.32 66.59-15.6 66.59-13.85L66.59-13.85 66.59-1.5Q66.59-0.9 66.15-0.45 65.7 0 65.09 0ZM84.64 0L84.64 0Q83.99 0 83.57-0.45 83.14-0.9 83.14-1.5L83.14-1.5 83.14-35.5Q83.14-36.1 83.57-36.55 83.99-37 84.64-37L84.64-37Q85.29-37 85.72-36.55 86.14-36.1 86.14-35.5L86.14-35.5 86.14-1.5Q86.14-0.9 85.72-0.45 85.29 0 84.64 0ZM101.64-25.65L101.64-25.65Q102.19-25.65 102.64-25.18 103.09-24.7 103.09-24.15L103.09-24.15Q103.09-23.5 102.54-23L102.54-23 85.74-8.7 85.59-12.25 100.59-25.15Q101.04-25.65 101.64-25.65ZM102.04 0L102.04 0Q101.39 0 100.94-0.55L100.94-0.55 89.54-12.65 91.79-14.7 103.09-2.65Q103.54-2.15 103.54-1.5L103.54-1.5Q103.54-0.8 102.99-0.4 102.44 0 102.04 0ZM121.14-31.35L122.04-31.15 109.89-0.95Q109.69-0.45 109.34-0.2 108.99 0.05 108.54 0.05L108.54 0.05Q107.84 0.05 107.49-0.33 107.14-0.7 107.09-1.25L107.09-1.25Q107.04-1.5 107.14-1.85L107.14-1.85 120.34-34.15Q120.59-34.7 120.97-34.93 121.34-35.15 121.84-35.15L121.84-35.15Q122.34-35.15 122.72-34.88 123.09-34.6 123.29-34.15L123.29-34.15 136.44-2Q136.54-1.7 136.54-1.4L136.54-1.4Q136.54-0.7 136.09-0.33 135.64 0.05 135.04 0.05L135.04 0.05Q134.54 0.05 134.17-0.23 133.79-0.5 133.59-0.95L133.59-0.95 121.14-31.35ZM130.14-10.1L112.79-10.1 114.04-13.05 129.54-13.05 130.14-10.1ZM144.89-2.95L162.04-2.95Q162.64-2.95 163.09-2.53 163.54-2.1 163.54-1.5L163.54-1.5Q163.54-0.85 163.09-0.43 162.64 0 162.04 0L162.04 0 144.19 0Q143.54 0 143.11-0.45 142.69-0.9 142.69-1.5L142.69-1.5 142.69-33.5Q142.69-34.1 143.14-34.55 143.59-35 144.29-35L144.29-35Q144.89-35 145.36-34.55 145.84-34.1 145.84-33.5L145.84-33.5 145.84-2.1 144.89-2.95ZM192.14-12.8L192.14-12.8Q192.14-9 190.46-5.98 188.79-2.95 185.94-1.23 183.09 0.5 179.49 0.5L179.49 0.5Q175.94 0.5 173.06-1.23 170.19-2.95 168.51-5.98 166.84-9 166.84-12.8L166.84-12.8Q166.84-16.65 168.51-19.65 170.19-22.65 173.06-24.4 175.94-26.15 179.49-26.15L179.49-26.15Q183.09-26.15 185.94-24.4 188.79-22.65 190.46-19.65 192.14-16.65 192.14-12.8ZM189.14-12.8L189.14-12.8Q189.14-15.85 187.89-18.23 186.64-20.6 184.46-21.98 182.28-23.35 179.49-23.35L179.49-23.35Q176.74-23.35 174.56-21.98 172.39-20.6 171.11-18.23 169.84-15.85 169.84-12.8L169.84-12.8Q169.84-9.75 171.11-7.4 172.39-5.05 174.56-3.68 176.74-2.3 179.49-2.3L179.49-2.3Q182.28-2.3 184.46-3.68 186.64-5.05 187.89-7.4 189.14-9.75 189.14-12.8ZM196.63-25.45L196.63-25.45 208.28-25.45Q208.88-25.45 209.28-25.03 209.68-24.6 209.68-24L209.68-24Q209.68-23.45 209.28-23.05 208.88-22.65 208.28-22.65L208.28-22.65 196.63-22.65Q196.03-22.65 195.61-23.08 195.18-23.5 195.18-24.05L195.18-24.05Q195.18-24.65 195.61-25.05 196.03-25.45 196.63-25.45ZM201.78-32.5L201.78-32.5Q202.43-32.5 202.86-32.05 203.28-31.6 203.28-31L203.28-31 203.28-5.9Q203.28-4.5 203.66-3.8 204.03-3.1 204.63-2.88 205.23-2.65 205.83-2.65L205.83-2.65Q206.23-2.65 206.56-2.78 206.88-2.9 207.28-2.9L207.28-2.9Q207.73-2.9 208.06-2.55 208.38-2.2 208.38-1.65L208.38-1.65Q208.38-0.95 207.58-0.48 206.78 0 205.68 0L205.68 0Q205.23 0 204.33-0.08 203.43-0.15 202.48-0.63 201.53-1.1 200.91-2.3 200.28-3.5 200.28-5.75L200.28-5.75 200.28-31Q200.28-31.6 200.71-32.05 201.13-32.5 201.78-32.5Z" opacity="1" transform="matrix(1,0,0,1,0,0)" fill="#ffffff" class="undefined-text-0" data-fill-palette-color="primary" id="text-0"></path></svg></g></svg></g></svg></g></svg></g><g></g></svg></g></svg></g></svg></g></svg></g></svg><rect width="395.52" height="247.2" fill="none" stroke="none" visibility="hidden"></rect></g></svg></g></svg>